HIERARCHY
ROOT pelvis
{
	OFFSET 0.003123 -0.351407 0.012037
	CHANNELS 6 Xposition Yposition Zposition Zrotation Yrotation Xrotation 
	JOINT left_hip
	{
		OFFSET 0.058189 -0.092763 -0.026001
		CHANNELS 3 Zrotation Yrotation Xrotation
		JOINT left_knee
		{
			OFFSET 0.054695 -0.378753 -0.009396
			CHANNELS 3 Zrotation Yrotation Xrotation
			JOINT left_ankle
			{
				OFFSET -0.043453 -0.403059 -0.031876
				CHANNELS 3 Zrotation Yrotation Xrotation
				JOINT left_foot
				{
					OFFSET 0.047257 -0.057997 0.118216
					CHANNELS 3 Zrotation Yrotation Xrotation
					End Site
					{
						OFFSET 0.000000 0.000000 0.000000
					}
				}
			}
		}
	}
	JOINT right_hip
	{
		OFFSET -0.063267 -0.103908 -0.021250
		CHANNELS 3 Zrotation Yrotation Xrotation
		JOINT right_knee
		{
			OFFSET -0.044210 -0.362380 -0.016824
			CHANNELS 3 Zrotation Yrotation Xrotation
			JOINT right_ankle
			{
				OFFSET 0.015417 -0.410728 -0.020192
				CHANNELS 3 Zrotation Yrotation Xrotation
				JOINT right_foot
				{
					OFFSET -0.038812 -0.058328 0.119049
					CHANNELS 3 Zrotation Yrotation Xrotation
					End Site
					{
						OFFSET 0.000000 0.000000 0.000000
					}
				}
			}
		}
	}
	JOINT spine_1
	{
		OFFSET -0.002763 0.109891 -0.027618
		CHANNELS 3 Zrotation Yrotation Xrotation
		JOINT spine_2
		{
			OFFSET 0.009448 0.131853 -0.005940
			CHANNELS 3 Zrotation Yrotation Xrotation
			JOINT spine_3
			{
				OFFSET -0.011330 0.052235 0.028447
				CHANNELS 3 Zrotation Yrotation Xrotation
				JOINT neck
				{
					OFFSET -0.012164 0.165167 -0.031615
					CHANNELS 3 Zrotation Yrotation Xrotation
					JOINT head
					{
						OFFSET 0.024783 0.160452 0.020737
						CHANNELS 3 Zrotation Yrotation Xrotation
						End Site
						{
							OFFSET 0.000000 0.000000 0.000000
						}
					}
				}
				JOINT left_collar
				{
					OFFSET 0.046364 0.084944 -0.007220
					CHANNELS 3 Zrotation Yrotation Xrotation
					JOINT left_shoulder
					{
						OFFSET 0.119239 0.057728 -0.015461
						CHANNELS 3 Zrotation Yrotation Xrotation
						JOINT left_elbow
						{
							OFFSET 0.254123 -0.072151 -0.042459
							CHANNELS 3 Zrotation Yrotation Xrotation
							JOINT left_wrist
							{
								OFFSET 0.251987 0.023221 -0.002472
								CHANNELS 3 Zrotation Yrotation Xrotation
								JOINT left_index_1
								{
									OFFSET 0.101902 -0.008688 0.019351
									CHANNELS 3 Zrotation Yrotation Xrotation
									JOINT left_index_2
									{
										OFFSET 0.030149 -0.011154 0.001151
										CHANNELS 3 Zrotation Yrotation Xrotation
										JOINT left_index_3
										{
											OFFSET 0.006504 -0.021577 -0.002433
											CHANNELS 3 Zrotation Yrotation Xrotation
											End Site
											{
												OFFSET 0.000000 0.000000 0.000000
											}
										}
									}
								}
								JOINT left_middle_1
								{
									OFFSET 0.109398 -0.006328 -0.003981
									CHANNELS 3 Zrotation Yrotation Xrotation
									JOINT left_middle_2
									{
										OFFSET 0.026472 -0.015218 -0.004641
										CHANNELS 3 Zrotation Yrotation Xrotation
										JOINT left_middle_3
										{
											OFFSET 0.005022 -0.023347 -0.001911
											CHANNELS 3 Zrotation Yrotation Xrotation
											End Site
											{
												OFFSET 0.000000 0.000000 0.000000
											}
										}
									}
								}
								JOINT left_pinky_1
								{
									OFFSET 0.084047 -0.014539 -0.043750
									CHANNELS 3 Zrotation Yrotation Xrotation
									JOINT left_pinky_2
									{
										OFFSET 0.012124 -0.014448 -0.005375
										CHANNELS 3 Zrotation Yrotation Xrotation
										JOINT left_pinky_3
										{
											OFFSET 0.003798 -0.018853 0.000167
											CHANNELS 3 Zrotation Yrotation Xrotation
											End Site
											{
												OFFSET 0.000000 0.000000 0.000000
											}
										}
									}
								}
								JOINT left_ring_1
								{
									OFFSET 0.097444 -0.009268 -0.027345
									CHANNELS 3 Zrotation Yrotation Xrotation
									JOINT left_ring_2
									{
										OFFSET 0.023561 -0.016057 -0.001895
										CHANNELS 3 Zrotation Yrotation Xrotation
										JOINT left_ring_3
										{
											OFFSET 0.004257 -0.023548 0.000814
											CHANNELS 3 Zrotation Yrotation Xrotation
											End Site
											{
												OFFSET 0.000000 0.000000 0.000000
											}
										}
									}
								}
								JOINT left_thumb_1
								{
									OFFSET 0.040636 -0.017977 0.025611
									CHANNELS 3 Zrotation Yrotation Xrotation
									JOINT left_thumb_2
									{
										OFFSET 0.021637 -0.017639 0.011623
										CHANNELS 3 Zrotation Yrotation Xrotation
										JOINT left_thumb_3
										{
											OFFSET 0.024002 -0.008356 0.006548
											CHANNELS 3 Zrotation Yrotation Xrotation
											End Site
											{
												OFFSET 0.000000 0.000000 0.000000
											}
										}
									}
								}
							}
						}
					}
				}
				JOINT right_collar
				{
					OFFSET -0.047695 0.084339 -0.013400
					CHANNELS 3 Zrotation Yrotation Xrotation
					JOINT right_shoulder
					{
						OFFSET -0.102578 0.053524 -0.012669
						CHANNELS 3 Zrotation Yrotation Xrotation
						JOINT right_elbow
						{
							OFFSET -0.271150 -0.036492 -0.026467
							CHANNELS 3 Zrotation Yrotation Xrotation
							JOINT right_wrist
							{
								OFFSET -0.249267 -0.004533 -0.015325
								CHANNELS 3 Zrotation Yrotation Xrotation
								JOINT right_index_1
								{
									OFFSET -0.099881 -0.011783 0.019600
									CHANNELS 3 Zrotation Yrotation Xrotation
									JOINT right_index_2
									{
										OFFSET -0.030148 -0.011154 0.001151
										CHANNELS 3 Zrotation Yrotation Xrotation
										JOINT right_index_3
										{
											OFFSET -0.006505 -0.021577 -0.002432
											CHANNELS 3 Zrotation Yrotation Xrotation
											End Site
											{
												OFFSET 0.000000 0.000000 0.000000
											}
										}
									}
								}
								JOINT right_middle_1
								{
									OFFSET -0.107376 -0.009422 -0.003734
									CHANNELS 3 Zrotation Yrotation Xrotation
									JOINT right_middle_2
									{
										OFFSET -0.026472 -0.015218 -0.004641
										CHANNELS 3 Zrotation Yrotation Xrotation
										JOINT right_middle_3
										{
											OFFSET -0.005022 -0.023347 -0.001911
											CHANNELS 3 Zrotation Yrotation Xrotation
											End Site
											{
												OFFSET 0.000000 0.000000 0.000000
											}
										}
									}
								}
								JOINT right_pinky_1
								{
									OFFSET -0.082027 -0.017634 -0.043503
									CHANNELS 3 Zrotation Yrotation Xrotation
									JOINT right_pinky_2
									{
										OFFSET -0.012123 -0.014448 -0.005374
										CHANNELS 3 Zrotation Yrotation Xrotation
										JOINT right_pinky_3
										{
											OFFSET -0.003798 -0.018852 0.000167
											CHANNELS 3 Zrotation Yrotation Xrotation
											End Site
											{
												OFFSET 0.000000 0.000000 0.000000
											}
										}
									}
								}
								JOINT right_ring_1
								{
									OFFSET -0.095423 -0.012362 -0.027099
									CHANNELS 3 Zrotation Yrotation Xrotation
									JOINT right_ring_2
									{
										OFFSET -0.023561 -0.016057 -0.001895
										CHANNELS 3 Zrotation Yrotation Xrotation
										JOINT right_ring_3
										{
											OFFSET -0.004257 -0.023548 0.000816
											CHANNELS 3 Zrotation Yrotation Xrotation
											End Site
											{
												OFFSET 0.000000 0.000000 0.000000
											}
										}
									}
								}
								JOINT right_thumb_1
								{
									OFFSET -0.038613 -0.021074 0.025861
									CHANNELS 3 Zrotation Yrotation Xrotation
									JOINT right_thumb_2
									{
										OFFSET -0.021636 -0.017639 0.011623
										CHANNELS 3 Zrotation Yrotation Xrotation
										JOINT right_thumb_3
										{
											OFFSET -0.024004 -0.008353 0.006547
											CHANNELS 3 Zrotation Yrotation Xrotation
											End Site
											{
												OFFSET 0.000000 0.000000 0.000000
											}
										}
									}
								}
							}
						}
					}
				}
			}
		}
	}
}
MOTION
Frames: 7
Frame Time: 0.050000
-0.005509 0.885981 0.024345 0.051474 -6.641780 -3.119112 20.908345 0.042078 3.369897 3.783003 -1.673119 9.709405 -3.208466 -0.274581 8.152005 0.000000 0.000000 0.000000 -22.422055 1.496362 -1.144671 3.543922 0.022031 11.579977 -4.551624 -13.300116 10.103880 0.000000 0.000000 0.000000 -0.810321 -1.570282 26.879271 -5.231113 -0.380506 -11.237655 5.077700 -4.934900 4.005897 2.437847 1.484550 -10.934017 0.000000 0.000000 0.000000 11.166166 10.363108 -3.481383 -95.750267 -66.597002 38.231432 136.242653 -64.248391 -101.954845 27.481035 -4.997672 -44.883880 0.859258 -10.988590 -0.984060 -1.861623 -15.797203 -32.410404 0.000000 0.000000 0.000000 -9.886778 -28.378946 -8.575146 14.829519 -2.873703 -28.161330 0.000000 0.000000 0.000000 7.617750 -20.494216 -26.688859 18.026641 0.293269 1.988643 0.000000 0.000000 0.000000 -7.904275 -23.519891 -10.809991 23.473373 0.329244 -18.622282 0.000000 0.000000 0.000000 38.160496 11.224468 -8.689266 -28.888748 -9.351708 6.968849 0.000000 0.000000 0.000000 -11.221386 1.297162 2.622315 84.623908 67.659588 38.241344 -139.153328 44.636447 -90.118173 -23.038105 5.611676 -59.883470 -1.261081 10.759334 -0.203427 -4.053934 36.527262 -43.494276 0.000000 0.000000 0.000000 13.183684 31.143284 -7.272560 -15.655600 7.358683 -36.668508 0.000000 0.000000 0.000000 -1.813909 25.632131 -28.917947 -19.726955 0.207142 0.362761 0.000000 0.000000 0.000000 13.449377 29.310603 -9.667218 -26.353046 0.573793 -22.889544 0.000000 0.000000 0.000000 -47.024437 -8.891403 -7.276749 33.492763 7.839191 9.910904 0.000000 0.000000 0.000000 
-0.004684 0.886786 0.024345 0.060386 -7.183847 -3.586844 20.594465 0.080319 4.207266 4.146104 -1.661136 9.142715 -3.176531 0.293470 8.969693 0.000000 0.000000 0.000000 -22.118434 1.527096 -0.915124 3.810738 -0.018623 10.790458 -5.943055 -15.861268 11.658234 0.000000 0.000000 0.000000 -0.708924 -1.547384 26.196222 -5.432119 -0.138130 -10.570272 5.248927 -4.805819 4.081103 2.363923 1.510854 -11.079317 0.000000 0.000000 0.000000 11.357058 10.224576 -3.425423 -96.415811 -67.219885 39.448556 133.959896 -64.092493 -99.081368 27.862330 -4.743859 -45.604774 1.067892 -10.158678 -0.905540 2.779766 -13.144724 -31.986596 0.000000 0.000000 0.000000 -10.262037 -27.305945 -8.170781 14.709741 -3.090274 -28.630441 0.000000 0.000000 0.000000 7.880210 -20.681322 -27.022455 17.339946 0.463981 2.753432 0.000000 0.000000 0.000000 -8.348995 -23.313342 -10.466926 24.201423 0.299061 -19.583447 0.000000 0.000000 0.000000 37.892632 10.717209 -8.915818 -28.161064 -6.932733 7.063983 0.000000 0.000000 0.000000 -11.197855 0.918085 2.484975 85.114524 67.300478 38.118100 -140.255560 44.748778 -92.030683 -22.169538 5.815218 -59.545903 -1.518515 11.566803 -0.267552 -5.357903 35.233901 -43.731328 0.000000 0.000000 0.000000 12.522588 30.970435 -7.583825 -15.101044 7.532857 -36.390910 0.000000 0.000000 0.000000 -2.480044 25.756596 -29.397333 -19.673114 0.068712 1.101674 0.000000 0.000000 0.000000 13.082593 28.968046 -9.802132 -26.671983 0.575958 -23.267265 0.000000 0.000000 0.000000 -47.042235 -8.741780 -7.482131 33.519965 8.259567 9.822392 0.000000 0.000000 0.000000 
-0.003978 0.887753 0.021706 0.057735 -7.396503 -4.432614 20.557783 0.116952 4.532335 4.266679 -1.651430 8.906205 -3.542582 1.125906 11.185301 0.000000 0.000000 0.000000 -21.764676 1.498446 -0.817912 3.971109 -0.027721 11.198702 -7.173683 -17.822318 12.560263 0.000000 0.000000 0.000000 -0.666604 -1.543293 26.098404 -5.135831 -0.324020 -10.746537 5.244448 -5.066377 4.024642 2.234527 1.436973 -10.656049 0.000000 0.000000 0.000000 11.943297 10.380886 -3.439643 -97.167400 -67.481427 40.520136 130.616206 -63.849320 -95.020495 27.423642 -3.916287 -46.082244 1.357855 -10.644463 -0.878905 2.950195 -14.736211 -34.001597 0.000000 0.000000 0.000000 -8.222934 -27.446908 -8.682485 12.248963 -4.633128 -30.698672 0.000000 0.000000 0.000000 6.920136 -21.063925 -27.139327 18.676869 0.156534 1.449106 0.000000 0.000000 0.000000 -8.485379 -24.291324 -10.796655 24.375395 0.338974 -19.362801 0.000000 0.000000 0.000000 38.982306 11.106645 -8.514316 -28.747210 -8.916737 7.059940 0.000000 0.000000 0.000000 -11.371435 0.860956 2.528016 85.742876 66.842654 37.843753 -141.180331 45.117543 -94.127864 -21.839257 5.934941 -59.432842 -0.418577 11.621250 -0.140652 -7.807501 31.586777 -43.317262 0.000000 0.000000 0.000000 14.286083 32.669143 -7.107500 -20.597542 4.688373 -34.549267 0.000000 0.000000 0.000000 -0.692369 26.306851 -29.101424 -20.384853 0.222640 0.423082 0.000000 0.000000 0.000000 14.745369 29.516546 -9.235225 -30.386297 -0.375134 -22.219160 0.000000 0.000000 0.000000 -47.851981 -9.831112 -6.538368 34.322974 9.844891 9.989443 0.000000 0.000000 0.000000 
-0.002564 0.888398 0.019066 0.053931 -7.960024 -4.929486 20.529980 0.166622 5.059243 4.125549 -1.643162 9.025509 -3.385032 1.336191 11.191358 0.000000 0.000000 0.000000 -21.317457 1.489550 -0.932471 3.021218 0.113719 11.568421 -6.744311 -17.273775 12.566967 0.000000 0.000000 0.000000 -0.659279 -1.537786 26.356344 -4.946046 -0.569014 -11.270522 5.389388 -5.145656 4.163133 2.302338 1.366846 -10.320935 0.000000 0.000000 0.000000 12.552191 10.302534 -3.377379 -96.576695 -67.222237 40.130781 129.575954 -63.138912 -93.090800 27.143903 -3.962514 -46.289870 1.760977 -11.226150 -0.902745 2.236098 -15.022539 -33.689478 0.000000 0.000000 0.000000 -8.438157 -27.225017 -8.579931 12.125248 -4.825946 -31.221526 0.000000 0.000000 0.000000 8.159443 -20.778028 -27.147110 16.606700 0.168399 0.859276 0.000000 0.000000 0.000000 -7.068505 -23.700875 -11.038965 22.428266 -0.283004 -20.846324 0.000000 0.000000 0.000000 39.748309 11.016202 -8.706638 -29.276016 -8.199860 7.417714 0.000000 0.000000 0.000000 -10.939664 0.688661 2.425151 86.215118 65.704938 36.841871 -143.521739 45.770114 -99.106973 -21.008423 6.712810 -60.092033 -0.047467 11.811398 -0.136760 -4.648772 33.768559 -42.456394 0.000000 0.000000 0.000000 13.712905 30.548695 -7.168013 -15.082537 7.377799 -35.928319 0.000000 0.000000 0.000000 -1.789296 25.319709 -28.731426 -19.720482 0.202915 0.432662 0.000000 0.000000 0.000000 13.675937 28.603720 -9.450922 -26.347673 0.704846 -23.199954 0.000000 0.000000 0.000000 -46.671886 -9.177853 -6.972880 34.014824 9.162334 10.091214 0.000000 0.000000 0.000000 
-0.000327 0.888721 0.016426 0.091310 -8.457429 -5.000615 20.464945 0.211338 5.065740 3.979982 -1.784158 10.312769 -3.174008 0.120295 8.857551 0.000000 0.000000 0.000000 -21.135230 1.529250 -0.747136 2.378161 0.174389 10.647039 -6.373072 -16.864719 12.793754 0.000000 0.000000 0.000000 -0.534223 -1.535741 26.007610 -4.867081 -0.493681 -10.779461 5.496503 -4.885698 4.063876 2.665901 1.312715 -10.128970 0.000000 0.000000 0.000000 13.127056 9.698730 -3.086768 -95.584374 -67.117765 39.387994 129.829805 -62.518545 -92.659820 27.209797 -4.598347 -46.484123 1.715696 -11.197823 -0.948936 -0.307011 -16.761606 -33.231884 0.000000 0.000000 0.000000 -9.084682 -28.771009 -8.701122 15.926881 -2.917477 -28.990627 0.000000 0.000000 0.000000 7.627070 -21.199683 -27.561313 18.529272 0.386633 2.734667 0.000000 0.000000 0.000000 -8.313493 -23.973777 -10.707082 25.599168 0.538942 -19.539717 0.000000 0.000000 0.000000 39.505805 11.093643 -8.596047 -29.185103 -9.132976 7.211613 0.000000 0.000000 0.000000 -10.022547 0.328320 2.125615 85.362705 63.436560 34.207790 -146.754240 46.001859 -105.345673 -20.166698 8.607706 -59.166265 1.322662 11.586997 -0.118883 -5.197456 28.373426 -40.602852 0.000000 0.000000 0.000000 15.345189 31.565270 -6.930997 -19.747143 4.574214 -33.369741 0.000000 0.000000 0.000000 -1.032622 25.318908 -28.695241 -19.613499 0.098032 1.003849 0.000000 0.000000 0.000000 14.847711 29.185290 -9.282091 -29.657147 -0.443763 -20.820539 0.000000 0.000000 0.000000 -46.023859 -9.302703 -7.385415 33.196954 7.594906 9.784976 0.000000 0.000000 0.000000 
0.000910 0.888882 0.013786 0.045247 -8.592583 -4.753206 20.660979 0.230268 4.514841 3.739018 -1.873125 11.387870 -3.209704 -0.961568 7.382615 0.000000 0.000000 0.000000 -20.970868 1.512775 -1.098403 2.091032 0.202582 10.389387 -6.262381 -16.793811 13.015760 0.000000 0.000000 0.000000 -0.368174 -1.549333 25.646999 -4.810266 -0.284841 -9.886448 5.671507 -5.455658 3.353565 2.870247 1.354507 -10.399093 0.000000 0.000000 0.000000 13.463169 9.730734 -3.111209 -95.448318 -66.687358 39.314832 130.249550 -61.938273 -92.628868 27.447367 -4.744394 -46.413082 2.454463 -10.429456 -1.019646 1.826383 -17.144138 -35.154411 0.000000 0.000000 0.000000 -8.682491 -28.179276 -8.720708 16.727700 -2.800254 -28.623751 0.000000 0.000000 0.000000 7.952019 -21.292452 -27.716597 16.988193 0.251232 1.389680 0.000000 0.000000 0.000000 -8.007121 -23.979566 -10.790669 26.681535 0.758134 -19.619884 0.000000 0.000000 0.000000 39.568462 11.349057 -8.357060 -28.905861 -9.104871 7.108731 0.000000 0.000000 0.000000 -9.343613 -0.042350 1.907196 85.465999 62.009571 32.708460 -149.562382 46.228416 -111.004375 -19.193562 9.575271 -58.761654 1.104472 10.981502 -0.302130 -1.489466 29.447668 -38.919813 0.000000 0.000000 0.000000 16.658729 31.707856 -6.593008 -18.339596 4.251428 -31.718336 0.000000 0.000000 0.000000 -0.674360 24.994540 -28.389254 -19.206209 0.062147 1.097832 0.000000 0.000000 0.000000 13.390281 26.798971 -9.366530 -25.285994 0.903285 -22.827345 0.000000 0.000000 0.000000 -44.762021 -9.035429 -7.790848 33.141047 7.256831 9.807152 0.000000 0.000000 0.000000 
0.001263 0.888882 0.011147 0.104302 -9.581135 -5.161870 20.899333 0.319579 4.863794 3.017997 -1.841970 12.416841 -2.822489 -0.848853 6.626671 0.000000 0.000000 0.000000 -21.064613 1.587105 -1.270734 2.046075 0.216908 10.341227 -5.785036 -16.117277 12.722353 0.000000 0.000000 0.000000 -0.650208 -1.512118 27.096397 -4.991166 -0.576253 -11.115021 6.044609 -5.329804 3.959730 2.960278 1.397003 -10.723334 0.000000 0.000000 0.000000 13.753833 10.264691 -3.336066 -95.841024 -66.256063 39.497848 130.181813 -61.182244 -91.776482 26.981812 -4.370394 -46.771288 1.852551 -12.071269 -0.929336 4.399896 -14.862470 -34.965217 0.000000 0.000000 0.000000 -7.629168 -28.788463 -9.107498 12.557646 -4.177425 -29.434814 0.000000 0.000000 0.000000 8.267908 -21.132558 -27.651200 16.945953 0.293584 1.600820 0.000000 0.000000 0.000000 -7.051194 -24.278486 -11.278856 23.121513 0.049550 -19.646086 0.000000 0.000000 0.000000 40.137870 10.778570 -8.860109 -29.280049 -8.224089 7.411462 0.000000 0.000000 0.000000 -9.294957 0.144434 2.008110 85.973336 61.842594 32.527988 -150.584386 46.120004 -112.684632 -19.015472 10.041996 -58.240344 2.959108 11.858545 -0.051287 -2.967534 25.564681 -38.647381 0.000000 0.000000 0.000000 16.548682 31.599846 -6.745751 -19.478430 4.072210 -31.918780 0.000000 0.000000 0.000000 -0.771009 24.445758 -28.092189 -19.092143 0.211829 0.136994 0.000000 0.000000 0.000000 15.560606 28.225750 -8.943010 -28.991716 -0.268091 -21.180127 0.000000 0.000000 0.000000 -44.599258 -9.565262 -7.566083 33.748343 8.842108 9.820051 0.000000 0.000000 0.000000 
